<?xml version="1.0" encoding="utf-8"?>
<!-- Generator: Adobe Illustrator 21.0.0, SVG Export Plug-In . SVG Version: 6.00 Build 0)  -->
<svg version="1.1" id="Capa_1" xmlns="http://www.w3.org/2000/svg" xmlns:xlink="http://www.w3.org/1999/xlink" x="0px" y="0px"
	 viewBox="0 0 473.2 247.1" style="enable-background:new 0 0 473.2 247.1;" xml:space="preserve">
<style type="text/css">
	.st0{fill:#009EE0;}
	.st1{opacity:0.8;}
	.st2{fill:url(#SVGID_1_);}
	.st3{opacity:0.2;}
	.st4{fill:#FFFFFF;}
	.st5{opacity:0.8;fill:url(#SVGID_2_);}
	.st6{opacity:0.6;fill:url(#SVGID_3_);}
	.st7{opacity:0.2;fill:#FFFFFF;}
	.st8{opacity:0.2;fill:#00335B;}
	.st9{opacity:0.5;}
</style>
<g>
	<path class="st0" d="M303.2,57.8H339l82.5,108.4V57.8h38.2V234h-33l-85.3-112v112h-38.2V57.8z"/>
</g>
<g class="st1">
	<linearGradient id="SVGID_1_" gradientUnits="userSpaceOnUse" x1="381.4958" y1="57.841" x2="381.4958" y2="233.9613">
		<stop  offset="0.2326" style="stop-color:#0079C8;stop-opacity:0"/>
		<stop  offset="0.8906" style="stop-color:#0079C8;stop-opacity:0.8575"/>
		<stop  offset="1" style="stop-color:#0079C8"/>
	</linearGradient>
	<path class="st2" d="M303.2,57.8H339l82.5,108.4V57.8h38.2V234h-33l-85.3-112v112h-38.2V57.8z"/>
</g>
<g class="st3">
	<rect x="421.5" y="58" class="st4" width="38.2" height="63.8"/>
	<polygon class="st4" points="303.2,121.7 387.6,121.7 339.1,58 303.2,58 	"/>
</g>
<path class="st0" d="M101.4,234h134c48.6,0,88-39.4,88-88v0c0-48.6-39.4-88-88-88h-134c-48.6,0-88,39.4-88,88v0
	C13.4,194.6,52.8,234,101.4,234z"/>
<linearGradient id="SVGID_2_" gradientUnits="userSpaceOnUse" x1="168.3801" y1="57.96" x2="168.3801" y2="233.9613">
	<stop  offset="0.2326" style="stop-color:#0079C8;stop-opacity:0"/>
	<stop  offset="0.8906" style="stop-color:#0079C8;stop-opacity:0.8575"/>
	<stop  offset="1" style="stop-color:#0079C8"/>
</linearGradient>
<path class="st5" d="M101.4,234h134c48.6,0,88-39.4,88-88v0c0-48.6-39.4-88-88-88h-134c-48.6,0-88,39.4-88,88v0
	C13.4,194.6,52.8,234,101.4,234z"/>
<linearGradient id="SVGID_3_" gradientUnits="userSpaceOnUse" x1="323.3975" y1="145.9606" x2="13.3628" y2="145.9606">
	<stop  offset="0.2326" style="stop-color:#0079C8;stop-opacity:0"/>
	<stop  offset="0.8906" style="stop-color:#0079C8;stop-opacity:0.8575"/>
	<stop  offset="1" style="stop-color:#0079C8"/>
</linearGradient>
<path class="st6" d="M101.4,234h134c48.6,0,88-39.4,88-88v0c0-48.6-39.4-88-88-88h-134c-48.6,0-88,39.4-88,88v0
	C13.4,194.6,52.8,234,101.4,234z"/>
<path class="st7" d="M77.2,121.7H320C309.5,84.9,275.6,58,235.4,58h-134c-48.6,0-88,39.4-88,88v0c0,1.1,0,2.1,0.1,3.2
	C29.5,132.3,52.1,121.7,77.2,121.7z"/>
<g>
	<path class="st0" d="M180.6,26.6v-0.1c0-10.1,7.6-18.3,18.5-18.3c6.7,0,10.7,2.2,14,5.5l-5,5.7c-2.7-2.5-5.5-4-9.1-4
		c-6,0-10.3,5-10.3,11v0.1c0,6.1,4.2,11.1,10.3,11.1c4.1,0,6.5-1.6,9.3-4.2l5,5c-3.6,3.9-7.7,6.3-14.5,6.3
		C188.4,44.8,180.6,36.8,180.6,26.6z"/>
	<path class="st0" d="M217.5,17h7.7v5.5c1.6-3.7,4.1-6.2,8.7-6v8.1h-0.4c-5.1,0-8.3,3.1-8.3,9.6v10h-7.7V17z"/>
	<path class="st0" d="M237.3,34.6V17h7.7v15.2c0,3.6,1.7,5.5,4.7,5.5c2.9,0,4.8-1.9,4.8-5.5V17h7.7v27.2h-7.7v-3.9
		c-1.8,2.3-4.1,4.4-8,4.4C240.7,44.7,237.3,40.9,237.3,34.6z"/>
	<path class="st0" d="M267.5,38.8l14-15.5h-13.6V17h23.2v5.4L277,38h14.1v6.2h-23.6V38.8z"/>
	<path class="st0" d="M297.4,8.7h16.5c4.1,0,7.2,1.1,9.3,3.1c1.6,1.6,2.4,3.6,2.4,6V18c0,4-2.1,6.2-4.7,7.7c4.1,1.6,6.6,4,6.6,8.7
		v0.1c0,6.5-5.3,9.7-13.3,9.7h-16.9V8.7z M317.8,19.2c0-2.3-1.8-3.6-5.1-3.6H305v7.5h7.2c3.4,0,5.6-1.1,5.6-3.7V19.2z M314,29.6h-9
		v7.8h9.3c3.4,0,5.5-1.2,5.5-3.9v-0.1C319.7,31,318,29.6,314,29.6z"/>
	<path class="st0" d="M333.2,7.2h7.7v37h-7.7V7.2z"/>
	<path class="st0" d="M345.8,36.4v-0.1c0-5.9,4.5-8.7,10.9-8.7c2.7,0,4.7,0.5,6.6,1.1v-0.5c0-3.2-2-5-5.8-5c-2.9,0-5,0.6-7.5,1.5
		l-1.9-5.9c3-1.3,5.9-2.2,10.5-2.2c4.2,0,7.2,1.1,9.2,3c2,2,2.9,5,2.9,8.7v15.8h-7.4v-2.9c-1.9,2.1-4.5,3.4-8.2,3.4
		C350,44.7,345.8,41.8,345.8,36.4z M363.5,34.6v-1.4c-1.3-0.6-3-1-4.9-1c-3.3,0-5.3,1.3-5.3,3.7v0.1c0,2.1,1.7,3.3,4.2,3.3
		C361,39.4,363.5,37.4,363.5,34.6z"/>
	<path class="st0" d="M376.9,17h7.7v3.9c1.8-2.3,4.1-4.4,8-4.4c5.8,0,9.2,3.9,9.2,10.1v17.6h-7.7V29.1c0-3.6-1.7-5.5-4.7-5.5
		c-2.9,0-4.8,1.9-4.8,5.5v15.2h-7.7V17z"/>
	<path class="st0" d="M406.5,30.8v-0.1c0-7.8,5.9-14.1,14.2-14.1c5.1,0,8.3,1.7,10.8,4.6l-4.7,5.1c-1.7-1.8-3.4-3-6.2-3
		c-3.9,0-6.6,3.4-6.6,7.4v0.1c0,4.2,2.7,7.5,6.9,7.5c2.6,0,4.4-1.1,6.2-2.9l4.5,4.6c-2.6,2.9-5.7,5-11.1,5
		C412.5,44.8,406.5,38.5,406.5,30.8z"/>
	<path class="st0" d="M434.5,36.4v-0.1c0-5.9,4.5-8.7,10.9-8.7c2.7,0,4.7,0.5,6.6,1.1v-0.5c0-3.2-2-5-5.8-5c-2.9,0-5,0.6-7.5,1.5
		l-1.9-5.9c3-1.3,5.9-2.2,10.5-2.2c4.2,0,7.2,1.1,9.2,3c2,2,2.9,5,2.9,8.7v15.8H452v-2.9c-1.9,2.1-4.5,3.4-8.2,3.4
		C438.7,44.7,434.5,41.8,434.5,36.4z M452.2,34.6v-1.4c-1.3-0.6-3-1-4.9-1c-3.3,0-5.3,1.3-5.3,3.7v0.1c0,2.1,1.7,3.3,4.2,3.3
		C449.7,39.4,452.2,37.4,452.2,34.6z"/>
</g>
<circle class="st8" cx="223.6" cy="148.7" r="60.6"/>
<circle class="st4" cx="220.9" cy="146" r="58.8"/>
<g>
	<path class="st4" d="M884.2,40.8h35.7l82.5,108.4V40.8h38.2v176.1h-33l-85.3-112v112h-38.2V40.8z"/>
</g>
<g>
	<path class="st4" d="M761.6,9.5V9.4c0-10.1,7.6-18.3,18.5-18.3c6.7,0,10.7,2.2,14,5.5l-5,5.7c-2.7-2.5-5.5-4-9.1-4
		c-6,0-10.3,5-10.3,11v0.1c0,6.1,4.2,11.1,10.3,11.1c4.1,0,6.5-1.6,9.3-4.2l5,5c-3.6,3.9-7.7,6.3-14.5,6.3
		C769.3,27.8,761.6,19.7,761.6,9.5z"/>
	<path class="st4" d="M798.4,0h7.7v5.5c1.6-3.7,4.1-6.2,8.7-6v8.1h-0.4c-5.1,0-8.3,3.1-8.3,9.6v10h-7.7V0z"/>
	<path class="st4" d="M818.3,17.6V0h7.7v15.2c0,3.6,1.7,5.5,4.7,5.5c2.9,0,4.8-1.9,4.8-5.5V0h7.7v27.2h-7.7v-3.9
		c-1.8,2.3-4.1,4.4-8,4.4C821.7,27.7,818.3,23.8,818.3,17.6z"/>
	<path class="st4" d="M848.4,21.7l14-15.5h-13.6V0H872v5.4l-14.1,15.5H872v6.2h-23.6V21.7z"/>
	<path class="st4" d="M878.3-8.3h16.5c4.1,0,7.2,1.1,9.3,3.1c1.6,1.6,2.4,3.6,2.4,6V1c0,4-2.1,6.2-4.7,7.7c4.1,1.6,6.6,4,6.6,8.7
		v0.1c0,6.5-5.3,9.7-13.3,9.7h-16.9V-8.3z M898.7,2.2c0-2.3-1.8-3.6-5.1-3.6h-7.7V6h7.2c3.4,0,5.6-1.1,5.6-3.7V2.2z M894.9,12.5h-9
		v7.8h9.3c3.4,0,5.5-1.2,5.5-3.9v-0.1C900.7,14,898.9,12.5,894.9,12.5z"/>
	<path class="st4" d="M914.2-9.8h7.7v37h-7.7V-9.8z"/>
	<path class="st4" d="M926.7,19.4v-0.1c0-5.9,4.5-8.7,10.9-8.7c2.7,0,4.7,0.5,6.6,1.1v-0.5c0-3.2-2-5-5.8-5c-2.9,0-5,0.6-7.5,1.5
		l-1.9-5.9c3-1.3,5.9-2.2,10.5-2.2c4.2,0,7.2,1.1,9.2,3c2,2,2.9,5,2.9,8.7v15.8h-7.4v-2.9c-1.9,2.1-4.5,3.4-8.2,3.4
		C930.9,27.7,926.7,24.7,926.7,19.4z M944.4,17.6v-1.4c-1.3-0.6-3-1-4.9-1c-3.3,0-5.3,1.3-5.3,3.7v0.1c0,2.1,1.7,3.3,4.2,3.3
		C942,22.3,944.4,20.4,944.4,17.6z"/>
	<path class="st4" d="M957.9,0h7.7v3.9c1.8-2.3,4.1-4.4,8-4.4c5.8,0,9.2,3.9,9.2,10.1v17.6h-7.7V12c0-3.6-1.7-5.5-4.7-5.5
		c-2.9,0-4.8,1.9-4.8,5.5v15.2h-7.7V0z"/>
	<path class="st4" d="M987.5,13.7v-0.1c0-7.8,5.9-14.1,14.2-14.1c5.1,0,8.3,1.7,10.8,4.6l-4.7,5.1c-1.7-1.8-3.4-3-6.2-3
		c-3.9,0-6.6,3.4-6.6,7.4v0.1c0,4.2,2.7,7.5,6.9,7.5c2.6,0,4.4-1.1,6.2-2.9l4.5,4.6c-2.6,2.9-5.7,5-11.1,5
		C993.5,27.8,987.5,21.5,987.5,13.7z"/>
	<path class="st4" d="M1015.4,19.4v-0.1c0-5.9,4.5-8.7,10.9-8.7c2.7,0,4.7,0.5,6.6,1.1v-0.5c0-3.2-2-5-5.8-5c-2.9,0-5,0.6-7.5,1.5
		l-1.9-5.9c3-1.3,5.9-2.2,10.5-2.2c4.2,0,7.2,1.1,9.2,3c2,2,2.9,5,2.9,8.7v15.8h-7.4v-2.9c-1.9,2.1-4.5,3.4-8.2,3.4
		C1019.6,27.7,1015.4,24.7,1015.4,19.4z M1033.1,17.6v-1.4c-1.3-0.6-3-1-4.9-1c-3.3,0-5.3,1.3-5.3,3.7v0.1c0,2.1,1.7,3.3,4.2,3.3
		C1030.7,22.3,1033.1,20.4,1033.1,17.6z"/>
</g>
<path class="st4" d="M594.3,128.9L594.3,128.9c0-48.6,39.4-88,88-88h134c48.6,0,88,39.4,88,88v0c0,48.6-39.4,88-88,88h-134
	C633.7,216.9,594.3,177.5,594.3,128.9z M801.8,70.1c-32.5,0-58.8,26.3-58.8,58.8s26.3,58.8,58.8,58.8c32.5,0,58.8-26.3,58.8-58.8
	S834.3,70.1,801.8,70.1z"/>
<g id="MqcHSv.tif">
	
		<image style="overflow:visible;" width="800" height="300" id="Layer_0_1_" xlink:href="90A9AFFC5C4C86C5.png"  transform="matrix(1 0 0 1 1098.8104 403.8536)">
	</image>
</g>
<g id="MZEu9z.tif">
	
		<image style="overflow:visible;" width="601" height="339" id="Layer_0" xlink:href="90A9AFFC5C4C86C7.png"  transform="matrix(1 0 0 1 -50.7478 719.6472)">
	</image>
</g>
<ellipse class="st9" cx="1366.7" cy="638.5" rx="28.5" ry="4.5"/>
<g>
	<path class="st4" d="M1262.8,530.6l19.8-23.1c0,0-8.8-15.8-42.9-20.4c0,0-39.9-6.4-64.4,15.7c0,0-30.2,24.9-27.8,64.9
		c0,0-0.6,56.9,61.6,69.8c0,0,47.3,10.2,80.3-22.2v-61.4c0,0-1.2-3.1-5.5-2.6l-55.5-0.3c0,0-2.9,0.7-3.2,2.8s-0.3,2.1-0.3,2.1
		l-0.1,20.7c0,0,0.1,2.1,3.7,2.9h28.8l0.4,20.7c0,0-12.2,11.8-38.7,8.1c0,0-35.4-5.4-36.9-43.1c0,0-0.7-27.7,17-39.8
		C1199.1,525.5,1228.7,501.2,1262.8,530.6z"/>
	<g>
		<path class="st4" d="M1266,465.4L1266,465.4c0-6.3,4.7-11.4,11.4-11.4c4.1,0,6.6,1.4,8.7,3.4l-3.1,3.5c-1.7-1.5-3.4-2.5-5.6-2.5
			c-3.7,0-6.4,3.1-6.4,6.8v0.1c0,3.8,2.6,6.9,6.4,6.9c2.5,0,4-1,5.8-2.6l3.1,3.1c-2.3,2.4-4.8,3.9-9,3.9
			C1270.8,476.7,1266,471.7,1266,465.4z"/>
		<path class="st4" d="M1288.8,459.5h4.8v3.4c1-2.3,2.5-3.8,5.4-3.7v5h-0.3c-3.2,0-5.1,1.9-5.1,5.9v6.2h-4.8V459.5z"/>
		<path class="st4" d="M1301.1,470.4v-10.9h4.8v9.4c0,2.3,1.1,3.4,2.9,3.4c1.8,0,3-1.2,3-3.4v-9.4h4.8v16.8h-4.8v-2.4
			c-1.1,1.4-2.5,2.7-4.9,2.7C1303.2,476.6,1301.1,474.2,1301.1,470.4z"/>
		<path class="st4" d="M1319.7,472.9l8.7-9.6h-8.4v-3.9h14.3v3.4l-8.7,9.6h8.7v3.9h-14.6V472.9z"/>
		<path class="st4" d="M1338.2,454.4h10.2c2.5,0,4.5,0.7,5.7,1.9c1,1,1.5,2.2,1.5,3.7v0.1c0,2.5-1.3,3.9-2.9,4.7
			c2.5,1,4.1,2.4,4.1,5.4v0.1c0,4-3.3,6-8.2,6h-10.4V454.4z M1350.8,460.8c0-1.4-1.1-2.3-3.2-2.3h-4.8v4.6h4.5
			C1349.5,463.2,1350.8,462.5,1350.8,460.8L1350.8,460.8z M1348.5,467.2h-5.6v4.8h5.7c2.1,0,3.4-0.8,3.4-2.4v-0.1
			C1352,468.1,1350.9,467.2,1348.5,467.2z"/>
		<path class="st4" d="M1360.4,453.4h4.8v22.9h-4.8V453.4z"/>
		<path class="st4" d="M1368.1,471.5L1368.1,471.5c0-3.7,2.8-5.4,6.8-5.4c1.7,0,2.9,0.3,4.1,0.7v-0.3c0-2-1.2-3.1-3.6-3.1
			c-1.8,0-3.1,0.3-4.6,0.9l-1.2-3.6c1.8-0.8,3.7-1.3,6.5-1.3c2.6,0,4.5,0.7,5.7,1.9c1.3,1.3,1.8,3.1,1.8,5.4v9.7h-4.6v-1.8
			c-1.2,1.3-2.8,2.1-5.1,2.1C1370.7,476.6,1368.1,474.8,1368.1,471.5z M1379.1,470.4v-0.8c-0.8-0.4-1.9-0.6-3-0.6
			c-2,0-3.3,0.8-3.3,2.3v0.1c0,1.3,1.1,2,2.6,2C1377.6,473.3,1379.1,472.1,1379.1,470.4z"/>
		<path class="st4" d="M1387.4,459.5h4.8v2.4c1.1-1.4,2.5-2.7,4.9-2.7c3.6,0,5.7,2.4,5.7,6.2v10.9h-4.8v-9.4c0-2.3-1.1-3.4-2.9-3.4
			c-1.8,0-3,1.2-3,3.4v9.4h-4.8V459.5z"/>
		<path class="st4" d="M1405.7,468L1405.7,468c0-4.9,3.7-8.8,8.8-8.8c3.2,0,5.1,1.1,6.7,2.8l-2.9,3.1c-1.1-1.1-2.1-1.8-3.8-1.8
			c-2.4,0-4.1,2.1-4.1,4.6v0.1c0,2.6,1.7,4.6,4.3,4.6c1.6,0,2.7-0.7,3.9-1.8l2.8,2.8c-1.6,1.8-3.5,3.1-6.9,3.1
			C1409.4,476.7,1405.7,472.8,1405.7,468z"/>
		<path class="st4" d="M1423,471.5L1423,471.5c0-3.7,2.8-5.4,6.8-5.4c1.7,0,2.9,0.3,4.1,0.7v-0.3c0-2-1.2-3.1-3.6-3.1
			c-1.8,0-3.1,0.3-4.6,0.9l-1.2-3.6c1.8-0.8,3.7-1.3,6.5-1.3c2.6,0,4.5,0.7,5.7,1.9c1.3,1.3,1.8,3.1,1.8,5.4v9.7h-4.6v-1.8
			c-1.2,1.3-2.8,2.1-5.1,2.1C1425.6,476.6,1423,474.8,1423,471.5z M1433.9,470.4v-0.8c-0.8-0.4-1.9-0.6-3-0.6c-2,0-3.3,0.8-3.3,2.3
			v0.1c0,1.3,1.1,2,2.6,2C1432.4,473.3,1433.9,472.1,1433.9,470.4z"/>
	</g>
	<path class="st4" d="M1325,605.8c-35.6-29.3-26-66-26-66c9.6-41.7,44.1-49.9,44.1-49.9c19.7-7.8,47.2,0,47.2,0
		c47.5,15.4,45.5,61.2,45.5,61.2c2.2,34.4-30.4,59-30.4,59c-6,5.8-20.7,19.8-20.7,19.8c-6,9.6-16.6,9.1-16.6,9.1
		c-12.5,0.6-19.8-9.1-19.8-9.1L1325,605.8z M1366.8,516.1c-18.6,0-33.8,15.8-33.8,35.2c0,19.4,15.1,35.2,33.8,35.2
		s33.8-15.8,33.8-35.2C1400.6,531.9,1385.5,516.1,1366.8,516.1z"/>
</g>
<g>
	<path class="st4" d="M-259.7,106.1l19.8-23.1c0,0-8.8-15.8-42.9-20.4c0,0-39.9-6.4-64.4,15.7c0,0-30.2,24.9-27.8,64.9
		c0,0-0.6,56.9,61.6,69.8c0,0,47.3,10.2,80.3-22.2v-61.4c0,0-1.2-3.1-5.5-2.6l-55.5-0.3c0,0-2.9,0.7-3.2,2.8
		c-0.3,2.1-0.3,2.1-0.3,2.1l-0.1,20.7c0,0,0.1,2.1,3.7,2.9h28.8l0.4,20.7c0,0-12.2,11.8-38.7,8.1c0,0-35.4-5.4-36.9-43.1
		c0,0-0.7-27.7,17-39.8C-323.5,101-293.9,76.8-259.7,106.1z"/>
	<g>
		<path class="st4" d="M-256.5,40.9L-256.5,40.9c0-6.3,4.7-11.4,11.4-11.4c4.1,0,6.6,1.4,8.7,3.4l-3.1,3.5c-1.7-1.5-3.4-2.5-5.6-2.5
			c-3.7,0-6.4,3.1-6.4,6.8v0.1c0,3.8,2.6,6.9,6.4,6.9c2.5,0,4-1,5.8-2.6l3.1,3.1c-2.3,2.4-4.8,3.9-9,3.9
			C-251.7,52.2-256.5,47.2-256.5,40.9z"/>
		<path class="st4" d="M-233.8,35.1h4.8v3.4c1-2.3,2.5-3.8,5.4-3.7v5h-0.3c-3.2,0-5.1,1.9-5.1,5.9v6.2h-4.8V35.1z"/>
		<path class="st4" d="M-221.5,45.9V35.1h4.8v9.4c0,2.3,1.1,3.4,2.9,3.4c1.8,0,3-1.2,3-3.4v-9.4h4.8v16.8h-4.8v-2.4
			c-1.1,1.4-2.5,2.7-4.9,2.7C-219.4,52.2-221.5,49.8-221.5,45.9z"/>
		<path class="st4" d="M-202.8,48.5l8.7-9.6h-8.4v-3.9h14.3v3.4l-8.7,9.6h8.7v3.9h-14.6V48.5z"/>
		<path class="st4" d="M-184.4,29.9h10.2c2.5,0,4.5,0.7,5.7,1.9c1,1,1.5,2.2,1.5,3.7v0.1c0,2.5-1.3,3.9-2.9,4.7
			c2.5,1,4.1,2.4,4.1,5.4v0.1c0,4-3.3,6-8.2,6h-10.4V29.9z M-171.7,36.4c0-1.4-1.1-2.3-3.2-2.3h-4.8v4.6h4.5
			C-173.1,38.8-171.7,38.1-171.7,36.4L-171.7,36.4z M-174.1,42.8h-5.6v4.8h5.7c2.1,0,3.4-0.8,3.4-2.4v-0.1
			C-170.5,43.7-171.6,42.8-174.1,42.8z"/>
		<path class="st4" d="M-162.2,29h4.8v22.9h-4.8V29z"/>
		<path class="st4" d="M-154.4,47L-154.4,47c0-3.7,2.8-5.4,6.8-5.4c1.7,0,2.9,0.3,4.1,0.7V42c0-2-1.2-3.1-3.6-3.1
			c-1.8,0-3.1,0.3-4.6,0.9l-1.2-3.6c1.8-0.8,3.7-1.3,6.5-1.3c2.6,0,4.5,0.7,5.7,1.9c1.3,1.3,1.8,3.1,1.8,5.4v9.7h-4.6V50
			c-1.2,1.3-2.8,2.1-5.1,2.1C-151.8,52.2-154.4,50.4-154.4,47z M-143.5,45.9v-0.8c-0.8-0.4-1.9-0.6-3-0.6c-2,0-3.3,0.8-3.3,2.3v0.1
			c0,1.3,1.1,2,2.6,2C-145,48.9-143.5,47.7-143.5,45.9z"/>
		<path class="st4" d="M-135.1,35.1h4.8v2.4c1.1-1.4,2.5-2.7,4.9-2.7c3.6,0,5.7,2.4,5.7,6.2v10.9h-4.8v-9.4c0-2.3-1.1-3.4-2.9-3.4
			c-1.8,0-3,1.2-3,3.4v9.4h-4.8V35.1z"/>
		<path class="st4" d="M-116.8,43.5L-116.8,43.5c0-4.9,3.7-8.8,8.8-8.8c3.2,0,5.1,1.1,6.7,2.8l-2.9,3.1c-1.1-1.1-2.1-1.8-3.8-1.8
			c-2.4,0-4.1,2.1-4.1,4.6v0.1c0,2.6,1.7,4.6,4.3,4.6c1.6,0,2.7-0.7,3.9-1.8l2.8,2.8c-1.6,1.8-3.5,3.1-6.9,3.1
			C-113.1,52.2-116.8,48.3-116.8,43.5z"/>
		<path class="st4" d="M-99.5,47L-99.5,47c0-3.7,2.8-5.4,6.8-5.4c1.7,0,2.9,0.3,4.1,0.7V42c0-2-1.2-3.1-3.6-3.1
			c-1.8,0-3.1,0.3-4.6,0.9l-1.2-3.6c1.8-0.8,3.7-1.3,6.5-1.3c2.6,0,4.5,0.7,5.7,1.9c1.3,1.3,1.8,3.1,1.8,5.4v9.7h-4.6V50
			c-1.2,1.3-2.8,2.1-5.1,2.1C-96.9,52.2-99.5,50.4-99.5,47z M-88.6,45.9v-0.8c-0.8-0.4-1.9-0.6-3-0.6c-2,0-3.3,0.8-3.3,2.3v0.1
			c0,1.3,1.1,2,2.6,2C-90.1,48.9-88.6,47.7-88.6,45.9z"/>
	</g>
	<path class="st4" d="M-197.6,181.3c-35.6-29.3-26-66-26-66c9.6-41.7,44.1-49.9,44.1-49.9c19.7-7.8,47.2,0,47.2,0
		c47.5,15.4,45.5,61.2,45.5,61.2c2.2,34.4-30.4,59-30.4,59c-6,5.8-20.7,19.8-20.7,19.8c-6,9.6-16.6,9.1-16.6,9.1
		c-12.5,0.6-19.8-9.1-19.8-9.1L-197.6,181.3z M-155.7,91.7c-18.6,0-33.8,15.8-33.8,35.2s15.1,35.2,33.8,35.2s33.8-15.8,33.8-35.2
		S-137.1,91.7-155.7,91.7z"/>
</g>
</svg>
